# xmcd CD database file
#
# Track frame offsets:
#	150
#	16205
#	33636
#	48166
#	68728
#	85176
#	100132
#	116248
#	134283
#	149876
#	167940
#	181019
#	197455
#	215274
#
# Disc length: 3129 seconds
#
# Revision: 0
# Processed by: cddbd v1.4PL0 Copyright (c) Steve Scherf et al.
# Submitted via: CDex 1.40Release
#
DISCID=c40c370e
DTITLE=The Famous Blue Louis - No. 1
DYEAR=2001
DGENRE=Blues
TTITLE0=If I'd Be With You
TTITLE1=It Ain't What You Are
TTITLE2=What A Day
TTITLE3=Hard To Get
TTITLE4=Before It Breaks
TTITLE5=Cash and Carried
TTITLE6=You Know Better
TTITLE7=Unique
TTITLE8=Time For Turnin'
TTITLE9=Rain Falls
TTITLE10=You're Special
TTITLE11=The World's Still Turnin
TTITLE12=Drinking Alone
TTITLE13=Women
EXTD=YEAR: 2001 ID3G: 0
EXTT0=
EXTT1=
EXTT2=
EXTT3=
EXTT4=
EXTT5=
EXTT6=
EXTT7=
EXTT8=
EXTT9=
EXTT10=
EXTT11=
EXTT12=
EXTT13=
PLAYORDER=
